<svg width="20" height="20" viewBox="0 0 20 20" fill="none" xmlns="http://www.w3.org/2000/svg">
<circle cx="10" cy="10" r="10" fill="#FF4700"/>
<path d="M15.8329 12.9014V14.6577C15.8336 14.8207 15.8001 14.9821 15.7347 15.1315C15.6692 15.2809 15.5732 15.415 15.4529 15.5252C15.3325 15.6354 15.1904 15.7193 15.0356 15.7716C14.8808 15.8238 14.7169 15.8432 14.5542 15.8285C12.7491 15.6328 11.0152 15.0172 9.49182 14.0313C8.0745 13.1324 6.87286 11.9332 5.97224 10.5186C4.98088 8.99137 4.36393 7.25251 4.17139 5.44293C4.15673 5.28104 4.17601 5.11787 4.22799 4.96382C4.27998 4.80978 4.36354 4.66822 4.47335 4.54816C4.58316 4.42811 4.71681 4.33219 4.8658 4.26651C5.01478 4.20083 5.17584 4.16684 5.33871 4.16668H7.09851C7.38318 4.16389 7.65917 4.2645 7.87502 4.44976C8.09087 4.63502 8.23186 4.8923 8.2717 5.17363C8.34597 5.73569 8.48372 6.28755 8.68232 6.8187C8.76124 7.02824 8.77832 7.25597 8.73154 7.4749C8.68475 7.69384 8.57606 7.8948 8.41835 8.05397L7.67337 8.79747C8.50842 10.2631 9.72438 11.4767 11.193 12.3101L11.9379 11.5666C12.0974 11.4092 12.2988 11.3007 12.5181 11.254C12.7375 11.2073 12.9657 11.2244 13.1756 11.3031C13.7079 11.5013 14.2608 11.6388 14.824 11.7129C15.1089 11.7531 15.3692 11.8963 15.5552 12.1154C15.7412 12.3345 15.8401 12.6143 15.8329 12.9014Z" fill="white"/>
</svg>
