<svg width="42" height="20" viewBox="0 0 42 20" fill="none" xmlns="http://www.w3.org/2000/svg">
<path d="M15.8333 11.6666V4.99992C15.8333 4.08325 15.0833 3.33325 14.1666 3.33325H2.49998C1.58331 3.33325 0.833313 4.08325 0.833313 4.99992V11.6666C0.833313 12.5833 1.58331 13.3333 2.49998 13.3333H14.1666C15.0833 13.3333 15.8333 12.5833 15.8333 11.6666ZM14.1666 11.6666H2.49998V4.99992H14.1666V11.6666ZM8.33331 5.83325C6.94998 5.83325 5.83331 6.94992 5.83331 8.33325C5.83331 9.71658 6.94998 10.8333 8.33331 10.8333C9.71665 10.8333 10.8333 9.71658 10.8333 8.33325C10.8333 6.94992 9.71665 5.83325 8.33331 5.83325ZM19.1666 5.83325V14.9999C19.1666 15.9166 18.4166 16.6666 17.5 16.6666H3.33331C3.33331 15.8333 3.33331 15.9166 3.33331 14.9999H17.5V5.83325C18.4166 5.83325 18.3333 5.83325 19.1666 5.83325Z" fill="#002855"/>
<path d="M15.8333 11.6666V4.99992C15.8333 4.08325 15.0833 3.33325 14.1666 3.33325H2.49998C1.58331 3.33325 0.833313 4.08325 0.833313 4.99992V11.6666C0.833313 12.5833 1.58331 13.3333 2.49998 13.3333H14.1666C15.0833 13.3333 15.8333 12.5833 15.8333 11.6666ZM14.1666 11.6666H2.49998V4.99992H14.1666V11.6666ZM8.33331 5.83325C6.94998 5.83325 5.83331 6.94992 5.83331 8.33325C5.83331 9.71658 6.94998 10.8333 8.33331 10.8333C9.71665 10.8333 10.8333 9.71658 10.8333 8.33325C10.8333 6.94992 9.71665 5.83325 8.33331 5.83325ZM19.1666 5.83325V14.9999C19.1666 15.9166 18.4166 16.6666 17.5 16.6666H3.33331C3.33331 15.8333 3.33331 15.9166 3.33331 14.9999H17.5V5.83325C18.4166 5.83325 18.3333 5.83325 19.1666 5.83325Z" fill="#002855"/>
<path d="M8.33331 5.83325C6.94998 5.83325 5.83331 6.94992 5.83331 8.33325C5.83331 9.71659 6.94998 10.8333 8.33331 10.8333C9.71665 10.8333 10.8333 9.71659 10.8333 8.33325C10.8333 6.94992 9.71665 5.83325 8.33331 5.83325Z" fill="#C0383C"/>
<path d="M8.33331 5.83325C6.94998 5.83325 5.83331 6.94992 5.83331 8.33325C5.83331 9.71659 6.94998 10.8333 8.33331 10.8333C9.71665 10.8333 10.8333 9.71659 10.8333 8.33325C10.8333 6.94992 9.71665 5.83325 8.33331 5.83325Z" fill="#C0383C"/>
<path d="M26.4038 10.126H25.626V13H24.7822V6.60156H25.626V9.42285H26.2852L28.522 6.60156H29.5723L27.1289 9.7041L29.7524 13H28.7197L26.4038 10.126ZM32.2573 13.0879C31.6128 13.0879 31.0884 12.877 30.6841 12.4551C30.2798 12.0303 30.0776 11.4634 30.0776 10.7544V10.605C30.0776 10.1333 30.167 9.71289 30.3457 9.34375C30.5273 8.97168 30.7793 8.68164 31.1016 8.47363C31.4268 8.2627 31.7783 8.15723 32.1562 8.15723C32.7744 8.15723 33.2549 8.36084 33.5977 8.76807C33.9404 9.17529 34.1118 9.7583 34.1118 10.5171V10.8555H30.8906C30.9023 11.3242 31.0386 11.7036 31.2993 11.9937C31.563 12.2808 31.897 12.4243 32.3013 12.4243C32.5884 12.4243 32.8315 12.3657 33.0308 12.2485C33.23 12.1313 33.4043 11.9761 33.5537 11.7827L34.0503 12.1694C33.6519 12.7817 33.0542 13.0879 32.2573 13.0879ZM32.1562 8.8252C31.8281 8.8252 31.5527 8.94531 31.3301 9.18555C31.1074 9.42285 30.9697 9.75684 30.917 10.1875H33.2988V10.126C33.2754 9.71289 33.1641 9.39355 32.9648 9.16797C32.7656 8.93945 32.4961 8.8252 32.1562 8.8252ZM35.9443 8.24512V12.3364H37.6846V8.24512H38.4976V12.3364H40.2334V8.24512H41.0508V13H35.127V8.24512H35.9443Z" fill="black"/>
</svg>
