<svg width="44" height="20" viewBox="0 0 44 20" fill="none" xmlns="http://www.w3.org/2000/svg">
<path d="M16.25 2.91675L15 1.66675L13.75 2.91675L12.5 1.66675L11.25 2.91675L10 1.66675L8.75 2.91675L7.5 1.66675L6.25 2.91675L5 1.66675L3.75 2.91675L2.5 1.66675V18.3334L3.75 17.0834L5 18.3334L6.25 17.0834L7.5 18.3334L8.75 17.0834L10 18.3334L11.25 17.0834L12.5 18.3334L13.75 17.0834L15 18.3334L16.25 17.0834L17.5 18.3334V1.66675L16.25 2.91675ZM15.8333 15.9084H4.16667V4.09175H15.8333V15.9084ZM5 12.5001H15V14.1667H5V12.5001ZM5 9.16675H15V10.8334H5V9.16675ZM5 5.83342H15V7.50008H5V5.83342Z" fill="black"/>
<path d="M5 12.5002H15V14.1668H5V12.5002ZM5 9.16683H15V10.8335H5V9.16683ZM5 5.8335H15V7.50016H5V5.8335Z" fill="#C0383C"/>
<path d="M5 12.5002H15V14.1668H5V12.5002ZM5 9.16683H15V10.8335H5V9.16683ZM5 5.8335H15V7.50016H5V5.8335Z" fill="#C0383C"/>
<path d="M29.4492 10.9697C29.3701 11.6465 29.1196 12.1694 28.6978 12.5386C28.2788 12.9048 27.7207 13.0879 27.0234 13.0879C26.2676 13.0879 25.6611 12.8169 25.2041 12.2749C24.75 11.7329 24.5229 11.0078 24.5229 10.0996V9.48438C24.5229 8.88965 24.6284 8.3667 24.8394 7.91553C25.0532 7.46436 25.355 7.11865 25.7446 6.87842C26.1343 6.63525 26.5854 6.51367 27.0981 6.51367C27.7778 6.51367 28.3228 6.7041 28.7329 7.08496C29.1431 7.46289 29.3818 7.9873 29.4492 8.6582H28.6011C28.5278 8.14844 28.3682 7.7793 28.1221 7.55078C27.8789 7.32227 27.5376 7.20801 27.0981 7.20801C26.5591 7.20801 26.1357 7.40723 25.8281 7.80566C25.5234 8.2041 25.3711 8.771 25.3711 9.50635V10.126C25.3711 10.8203 25.5161 11.3726 25.8062 11.7827C26.0962 12.1929 26.502 12.3979 27.0234 12.3979C27.4922 12.3979 27.8511 12.2925 28.1001 12.0815C28.3521 11.8677 28.519 11.4971 28.6011 10.9697H29.4492ZM34.0679 13H33.2505V11.2773C32.8931 11.3711 32.5269 11.418 32.1519 11.418C31.5571 11.418 31.103 11.2656 30.7896 10.9609C30.479 10.6562 30.3208 10.2227 30.3149 9.66016V8.24072H31.1279V9.68652C31.1426 10.3955 31.4839 10.75 32.1519 10.75C32.5269 10.75 32.8931 10.7031 33.2505 10.6094V8.24512H34.0679V13ZM37.3462 13.0879C36.7017 13.0879 36.1772 12.877 35.7729 12.4551C35.3687 12.0303 35.1665 11.4634 35.1665 10.7544V10.605C35.1665 10.1333 35.2559 9.71289 35.4346 9.34375C35.6162 8.97168 35.8682 8.68164 36.1904 8.47363C36.5156 8.2627 36.8672 8.15723 37.2451 8.15723C37.8633 8.15723 38.3438 8.36084 38.6865 8.76807C39.0293 9.17529 39.2007 9.7583 39.2007 10.5171V10.8555H35.9795C35.9912 11.3242 36.1274 11.7036 36.3882 11.9937C36.6519 12.2808 36.9858 12.4243 37.3901 12.4243C37.6772 12.4243 37.9204 12.3657 38.1196 12.2485C38.3188 12.1313 38.4932 11.9761 38.6426 11.7827L39.1392 12.1694C38.7407 12.7817 38.1431 13.0879 37.3462 13.0879ZM37.2451 8.8252C36.917 8.8252 36.6416 8.94531 36.4189 9.18555C36.1963 9.42285 36.0586 9.75684 36.0059 10.1875H38.3877V10.126C38.3643 9.71289 38.2529 9.39355 38.0537 9.16797C37.8545 8.93945 37.585 8.8252 37.2451 8.8252ZM35.8257 6.9751C35.8257 6.84326 35.8652 6.7334 35.9443 6.64551C36.0264 6.55469 36.1465 6.50928 36.3047 6.50928C36.4629 6.50928 36.583 6.55469 36.665 6.64551C36.7471 6.7334 36.7881 6.84326 36.7881 6.9751C36.7881 7.10693 36.7471 7.2168 36.665 7.30469C36.583 7.39258 36.4629 7.43652 36.3047 7.43652C36.1465 7.43652 36.0264 7.39258 35.9443 7.30469C35.8652 7.2168 35.8257 7.10693 35.8257 6.9751ZM37.7153 6.98389C37.7153 6.85205 37.7549 6.74072 37.834 6.6499C37.916 6.55908 38.0361 6.51367 38.1943 6.51367C38.3525 6.51367 38.4727 6.55908 38.5547 6.6499C38.6367 6.74072 38.6777 6.85205 38.6777 6.98389C38.6777 7.11572 38.6367 7.22559 38.5547 7.31348C38.4727 7.40137 38.3525 7.44531 38.1943 7.44531C38.0361 7.44531 37.916 7.40137 37.834 7.31348C37.7549 7.22559 37.7153 7.11572 37.7153 6.98389ZM43.626 8.9043H42.0308V13H41.2178V8.9043H39.6533V8.24512H43.626V8.9043Z" fill="black"/>
</svg>
