<svg width="20" height="20" viewBox="0 0 20 20" fill="none" xmlns="http://www.w3.org/2000/svg">
<circle cx="10" cy="10" r="10" fill="#FF4700"/>
<path d="M14.0767 8.77409C14.0767 12.4873 9.53833 15.67 9.53833 15.67C9.53833 15.67 5 12.4873 5 8.77409C5 7.50792 5.47814 6.29361 6.32925 5.3983C7.18035 4.50298 8.33469 4 9.53833 4C10.742 4 11.8963 4.50298 12.7474 5.3983C13.5985 6.29361 14.0767 7.50792 14.0767 8.77409Z" stroke="white" stroke-opacity="0.75" stroke-width="2" stroke-linecap="round" stroke-linejoin="round"/>
<path d="M9.53834 9.83503C10.2545 9.83503 10.835 9.2545 10.835 8.53837C10.835 7.82224 10.2545 7.2417 9.53834 7.2417C8.82221 7.2417 8.24167 7.82224 8.24167 8.53837C8.24167 9.2545 8.82221 9.83503 9.53834 9.83503Z" stroke="white" stroke-opacity="0.75" stroke-width="2" stroke-linecap="round" stroke-linejoin="round"/>
</svg>
