<svg width="20" height="20" viewBox="0 0 20 20" fill="none" xmlns="http://www.w3.org/2000/svg">
<path d="M10 13.3334C11.841 13.3334 13.3334 11.841 13.3334 10.0001C13.3334 8.15913 11.841 6.66675 10 6.66675C8.15907 6.66675 6.66669 8.15913 6.66669 10.0001C6.66669 11.841 8.15907 13.3334 10 13.3334Z" stroke="white" stroke-opacity="0.75" stroke-width="2" stroke-linecap="round" stroke-linejoin="round"/>
<path d="M13.3333 6.66672V10.8334C13.3333 11.4964 13.5967 12.1323 14.0655 12.6012C14.5344 13.07 15.1703 13.3334 15.8333 13.3334C16.4963 13.3334 17.1322 13.07 17.6011 12.6012C18.0699 12.1323 18.3333 11.4964 18.3333 10.8334V10.0001C18.3332 8.11924 17.6968 6.29378 16.5277 4.8205C15.3586 3.34721 13.7254 2.31274 11.8938 1.8853C10.0622 1.45786 8.13991 1.66259 6.43942 2.46619C4.73894 3.2698 3.3603 4.62502 2.52768 6.31149C1.69507 7.99796 1.45744 9.9165 1.85344 11.7551C2.24944 13.5938 3.25578 15.2444 4.70883 16.4386C6.16187 17.6328 7.97616 18.3003 9.85669 18.3327C11.7372 18.365 13.5734 17.7603 15.0666 16.6167" stroke="white" stroke-opacity="0.75" stroke-width="2" stroke-linecap="round" stroke-linejoin="round"/>
</svg>
