<svg width="40" height="40" viewBox="0 0 40 40" fill="none" xmlns="http://www.w3.org/2000/svg">
<g opacity="0.75">
<path fill-rule="evenodd" clip-rule="evenodd" d="M20 0C8.95431 0 0 8.95431 0 20C0 31.0457 8.95431 40 20 40C31.0457 40 40 31.0457 40 20C40 8.95431 31.0457 0 20 0ZM15.6018 9.39684C16.7396 9.34506 17.1031 9.3324 20 9.3324H19.9967C22.8945 9.3324 23.2568 9.34506 24.3945 9.39684C25.5301 9.44884 26.3057 9.62862 26.9857 9.8924C27.6879 10.1646 28.2812 10.5291 28.8746 11.1224C29.4679 11.7153 29.8324 12.3104 30.1057 13.012C30.3679 13.6902 30.5479 14.4653 30.6013 15.6009C30.6524 16.7387 30.6657 17.1023 30.6657 19.9992C30.6657 22.8961 30.6524 23.2588 30.6013 24.3966C30.5479 25.5317 30.3679 26.307 30.1057 26.9855C29.8324 27.6868 29.4679 28.2819 28.8746 28.8748C28.2819 29.4682 27.6877 29.8335 26.9863 30.1059C26.3077 30.3697 25.5317 30.5495 24.3961 30.6015C23.2583 30.6533 22.8959 30.666 19.9987 30.666C17.102 30.666 16.7387 30.6533 15.6009 30.6015C14.4655 30.5495 13.6902 30.3697 13.0115 30.1059C12.3104 29.8335 11.7153 29.4682 11.1226 28.8748C10.5295 28.2819 10.1651 27.6868 9.89239 26.9852C9.62883 26.307 9.44905 25.5319 9.39683 24.3963C9.34527 23.2585 9.33238 22.8961 9.33238 19.9992C9.33238 17.1023 9.34572 16.7385 9.39661 15.6007C9.44772 14.4656 9.62772 13.6902 9.89217 13.0118C10.1655 12.3104 10.53 11.7153 11.1233 11.1224C11.7162 10.5293 12.3113 10.1649 13.0129 9.8924C13.6911 9.62862 14.4662 9.44884 15.6018 9.39684Z" fill="white"/>
<path fill-rule="evenodd" clip-rule="evenodd" d="M19.0451 11.2527C19.2309 11.2524 19.4308 11.2525 19.6465 11.2526L20.002 11.2527C22.85 11.2527 23.1876 11.2629 24.3122 11.314C25.3523 11.3616 25.9167 11.5353 26.2927 11.6813C26.7905 11.8747 27.1454 12.1058 27.5185 12.4791C27.8918 12.8525 28.123 13.208 28.3167 13.7058C28.4627 14.0814 28.6367 14.6458 28.6841 15.6858C28.7352 16.8103 28.7463 17.1481 28.7463 19.9948C28.7463 22.8415 28.7352 23.1792 28.6841 24.3037C28.6365 25.3437 28.4627 25.9082 28.3167 26.2837C28.1234 26.7815 27.8918 27.1359 27.5185 27.5091C27.1452 27.8824 26.7907 28.1135 26.2927 28.3068C25.9172 28.4535 25.3523 28.6268 24.3122 28.6744C23.1878 28.7255 22.85 28.7366 20.002 28.7366C17.1537 28.7366 16.8162 28.7255 15.6917 28.6744C14.6517 28.6264 14.0873 28.4526 13.711 28.3066C13.2132 28.1133 12.8577 27.8822 12.4843 27.5088C12.111 27.1355 11.8799 26.7808 11.6861 26.2828C11.5401 25.9073 11.3661 25.3428 11.3188 24.3028C11.2677 23.1783 11.2574 22.8406 11.2574 19.9921C11.2574 17.1436 11.2677 16.8076 11.3188 15.6832C11.3663 14.6431 11.5401 14.0787 11.6861 13.7027C11.8795 13.2049 12.111 12.8494 12.4843 12.476C12.8577 12.1027 13.2132 11.8716 13.711 11.6778C14.087 11.5311 14.6517 11.3578 15.6917 11.31C16.6757 11.2656 17.0571 11.2522 19.0451 11.25V11.2527ZM25.6965 13.0232C24.9899 13.0232 24.4165 13.5959 24.4165 14.3027C24.4165 15.0094 24.9899 15.5828 25.6965 15.5828C26.4032 15.5828 26.9766 15.0094 26.9766 14.3027C26.9766 13.5961 26.4032 13.0227 25.6965 13.0227V13.0232ZM14.5245 19.9977C14.5245 16.9727 16.9771 14.52 20.0021 14.5199C23.0272 14.5199 25.4793 16.9726 25.4793 19.9977C25.4793 23.0229 23.0275 25.4745 20.0023 25.4745C16.9772 25.4745 14.5245 23.0229 14.5245 19.9977Z" fill="white"/>
<path fill-rule="evenodd" clip-rule="evenodd" d="M20.0016 16.446C21.9652 16.446 23.5572 18.0378 23.5572 20.0016C23.5572 21.9652 21.9652 23.5572 20.0016 23.5572C18.0378 23.5572 16.446 21.9652 16.446 20.0016C16.446 18.0378 18.0378 16.446 20.0016 16.446V16.446Z" fill="white"/>
</g>
</svg>
