<svg width="20" height="20" viewBox="0 0 20 20" fill="none" xmlns="http://www.w3.org/2000/svg">
<g clip-path="url(#clip0)">
<path d="M7.77519 0C3.48254 0 0.00195312 3.48059 0.00195312 7.77327C0.00195312 12.0659 3.48254 15.5465 7.77522 15.5465C9.42592 15.5465 10.9568 15.0317 12.2151 14.1547L12.216 14.1537L17.981 19.9188C18.088 20.0257 18.2581 20.0285 18.3679 19.9188L19.9216 18.365C20.0286 18.258 20.0231 18.0806 19.9207 17.9782L14.1566 12.2141C15.0336 10.9548 15.5485 9.42393 15.5485 7.77327C15.5485 3.48059 12.0679 0 7.77519 0ZM7.77519 13.7175C4.49212 13.7175 1.83093 11.0563 1.83093 7.77327C1.83093 4.4902 4.49215 1.82901 7.77519 1.82901C11.0582 1.82901 13.7194 4.4902 13.7194 7.77327C13.7194 11.0563 11.0583 13.7175 7.77519 13.7175Z" fill="#002855"/>
</g>
<defs>
<clipPath id="clip0">
<rect width="20" height="20" fill="white"/>
</clipPath>
</defs>
</svg>
