<svg width="20" height="20" viewBox="0 0 20 20" fill="none" xmlns="http://www.w3.org/2000/svg">
<path d="M16 8.36364C16 14.0909 9 19 9 19C9 19 2 14.0909 2 8.36364C2 6.41068 2.7375 4.53771 4.05025 3.15676C5.36301 1.77581 7.14348 1 9 1C10.8565 1 12.637 1.77581 13.9497 3.15676C15.2625 4.53771 16 6.41068 16 8.36364Z" stroke="white" stroke-opacity="0.75" stroke-width="2" stroke-linecap="round" stroke-linejoin="round"/>
<path d="M9 10C10.1046 10 11 9.10457 11 8C11 6.89543 10.1046 6 9 6C7.89543 6 7 6.89543 7 8C7 9.10457 7.89543 10 9 10Z" stroke="white" stroke-opacity="0.75" stroke-width="2" stroke-linecap="round" stroke-linejoin="round"/>
</svg>
