<svg width="35" height="36" viewBox="0 0 35 36" fill="none" xmlns="http://www.w3.org/2000/svg">
<path d="M0.240479 14.9933C0.240479 12.4395 5.04918 0 17.4717 0C25.8067 0 34.8631 6.01378 34.8631 18.2061C34.8631 28.1741 26.2075 31.3046 22.6811 31.3046C11.8615 31.3046 9.53733 21.8308 9.53733 20.6775C10.7395 23.9727 13.6247 26.3618 17.3114 26.3618C20.998 26.3618 25.4862 23.3137 25.4862 17.959C25.4862 9.55614 18.9143 4.94283 12.5027 4.94283C8.57555 4.94283 2.08381 7.24948 0.240479 14.9933Z" fill="url(#paint0_linear)"/>
<path d="M34.7833 20.1005C34.5428 25.2904 29.8142 35.9999 17.3916 35.9999C9.05648 35.9999 0 29.9861 0 17.7938C0 7.82577 8.49546 4.69531 12.1822 4.69531C23.082 4.69531 25.5665 13.6748 25.5665 16.8876C25.0055 12.1919 21.2386 9.391 17.2313 9.391C13.3843 9.391 9.21676 13.2629 9.21676 17.3819C9.21676 24.3842 15.5483 31.1394 22.3607 31.1394C26.1275 31.2218 33.3407 28.7504 34.7833 20.1005Z" fill="url(#paint1_linear)"/>
<defs>
<linearGradient id="paint0_linear" x1="19.8665" y1="27.5641" x2="13.6928" y2="-2.68397" gradientUnits="userSpaceOnUse">
<stop stop-color="#FF3300"/>
<stop offset="1" stop-color="#FFA300"/>
</linearGradient>
<linearGradient id="paint1_linear" x1="15.1024" y1="8.44494" x2="21.2874" y2="38.7485" gradientUnits="userSpaceOnUse">
<stop stop-color="#FF3300"/>
<stop offset="1" stop-color="#FFA300"/>
</linearGradient>
</defs>
</svg>
