<svg width="25" height="25" viewBox="0 0 25 25" fill="none" xmlns="http://www.w3.org/2000/svg">
<path d="M24.8416 4.954H22.4056V7.334H20.5996V4.954H18.1776V3.246H20.5996V0.866H22.4056V3.246H24.8416V4.954Z" fill="#FF4700"/>
<g clip-path="url(#clip0)">
<path fill-rule="evenodd" clip-rule="evenodd" d="M7.27312 5.12502C6.20111 5.45688 5.38741 6.18218 4.92924 7.21429C4.70318 7.72345 4.66254 7.96938 4.57727 9.34109L4.48094 10.8921L2.30927 10.9274C0.808502 10.9519 0.104455 10.9993 0.0304983 11.0809C-0.0514016 11.1712 0.0239244 12.1059 0.350885 15.0556C0.994762 20.8636 1.17682 22.1745 1.41814 22.7402C1.66503 23.3191 2.49005 24.2465 3.05915 24.585C3.64122 24.9312 4.68428 24.986 10.8314 24.9936L16.1017 25L16.5951 24.7425C16.8665 24.6009 17.3504 24.247 17.6704 23.9559C18.3867 23.3048 18.6807 22.6871 18.8742 21.4278C19.1371 19.7165 20.066 11.1169 19.9963 11.0399C19.9579 10.9976 18.9233 10.9475 17.697 10.9285L15.4676 10.8942L15.4652 10.3248C15.4598 9.01889 15.2901 7.75636 15.0459 7.20644C14.7361 6.50851 13.9675 5.67936 13.3007 5.32386L12.7741 5.04301L10.2632 5.00991C8.25738 4.98334 7.65595 5.00648 7.27312 5.12502ZM12.4126 7.17736C12.8194 7.38092 13.2381 7.87147 13.4253 8.36383C13.5049 8.57333 13.5678 9.41143 13.6084 10.804L13.6703 12.925H15.8455H18.0206L17.9745 13.3527C17.9492 13.5879 17.8052 14.935 17.6546 16.3463C17.2658 19.9887 17.0645 21.4734 16.9017 21.8996C16.822 22.1082 16.5909 22.4055 16.374 22.5788L15.988 22.8869H9.94897H3.90992L3.5364 22.4592C3.33096 22.224 3.11676 21.9323 3.06034 21.8108C2.91078 21.4885 2.53141 18.485 1.99838 13.403L1.94825 12.925H6.14332H10.3383L10.5747 12.6154C10.9651 12.1041 10.9662 11.8875 10.5808 11.3693L10.2412 10.9125H8.27555H6.30976L6.36208 9.82117C6.39084 9.21863 6.47484 8.57001 6.54944 8.37318C6.74109 7.86785 7.31219 7.20523 7.64901 7.09767C7.80633 7.04745 8.85944 7.00328 9.98933 6.99946C11.7961 6.99342 12.0881 7.01485 12.4126 7.17736Z" fill="#FF4700"/>
</g>
<defs>
<clipPath id="clip0">
<rect width="20" height="20" fill="white" transform="translate(0 5)"/>
</clipPath>
</defs>
</svg>
