<svg width="40" height="40" viewBox="0 0 40 40" fill="none" xmlns="http://www.w3.org/2000/svg">
<g opacity="0.75">
<path fill-rule="evenodd" clip-rule="evenodd" d="M20 0C8.9543 0 0 8.95431 0 20C0 31.0457 8.9543 40 20 40C31.0457 40 40 31.0457 40 20C40 8.95431 31.0457 0 20 0ZM29.5615 13.8095C30.1999 14.471 30.4083 15.9732 30.4083 15.9732C30.4083 15.9732 30.6213 17.7377 30.6213 19.5015V21.1556C30.6213 22.9201 30.4083 24.6839 30.4083 24.6839C30.4083 24.6839 30.1999 26.1861 29.5615 26.8476C28.8316 27.6302 28.0223 27.711 27.5648 27.7567C27.5145 27.7617 27.4685 27.7663 27.4273 27.7714C24.4462 27.9921 19.97 27.999 19.97 27.999C19.97 27.999 14.4314 27.9472 12.7272 27.7796C12.6464 27.7641 12.5485 27.7521 12.4377 27.7385C11.8979 27.6723 11.0506 27.5683 10.3779 26.8476C9.73948 26.1861 9.53178 24.6839 9.53178 24.6839C9.53178 24.6839 9.31876 22.9201 9.31876 21.1556V19.5015C9.31876 17.7377 9.53178 15.9732 9.53178 15.9732C9.53178 15.9732 9.73948 14.471 10.3779 13.8095C11.1094 13.0258 11.9195 12.9458 12.377 12.9007C12.4266 12.8958 12.472 12.8913 12.5128 12.8864C15.4938 12.6656 19.9654 12.6656 19.9654 12.6656H19.9747C19.9747 12.6656 24.4462 12.6656 27.4273 12.8864C27.468 12.8913 27.5135 12.8958 27.5631 12.9007C28.0203 12.9459 28.8307 13.0259 29.5615 13.8095Z" fill="white"/>
<path fill-rule="evenodd" clip-rule="evenodd" d="M17.7975 23.1597L17.7969 17.0344L23.5609 20.1076L17.7975 23.1597Z" fill="white"/>
</g>
</svg>
